<svg xmlns="http://www.w3.org/2000/svg" width="900" height="352" viewBox="0 0 900 352">
<rect width="100%" height="100%" fill="#ffffff"/>
<text x="24" y="28" font-size="20" font-weight="700">PromptABI CPU-only benchmark chart</text>
<text x="24" y="48" font-size="12" fill="#475569">Generated from live benchmark code paths; values vary by machine.</text>
<text x="24" y="71" font-size="13">tokenizer-analysis</text><rect x="286" y="54" width="42" height="20" fill="#2563eb" rx="3"/><text x="342" y="70" font-size="12">379.73 runs/s</text>
<text x="24" y="105" font-size="13">template-symbolic-execution</text><rect x="286" y="88" width="11" height="20" fill="#2563eb" rx="3"/><text x="311" y="104" font-size="12">99.44 runs/s</text>
<text x="24" y="139" font-size="13">grammar-emptiness</text><rect x="286" y="122" width="121" height="20" fill="#2563eb" rx="3"/><text x="421" y="138" font-size="12">1073.59 runs/s</text>
<text x="24" y="173" font-size="13">stop-checks</text><rect x="286" y="156" width="520" height="20" fill="#2563eb" rx="3"/><text x="820" y="172" font-size="12">4608.29 runs/s</text>
<text x="24" y="207" font-size="13">z3-static-contracts</text><rect x="286" y="190" width="21" height="20" fill="#2563eb" rx="3"/><text x="321" y="206" font-size="12">192.34 runs/s</text>
<text x="24" y="241" font-size="13">budget-checks</text><rect x="286" y="224" width="469" height="20" fill="#2563eb" rx="3"/><text x="769" y="240" font-size="12">4163.77 runs/s</text>
<text x="24" y="275" font-size="13">corpus-wide-verification</text><rect x="286" y="258" width="5" height="20" fill="#2563eb" rx="3"/><text x="305" y="274" font-size="12">47.27 runs/s</text>
<text x="24" y="309" font-size="13">cache-cold-warm</text><rect x="286" y="292" width="326" height="20" fill="#2563eb" rx="3"/><text x="626" y="308" font-size="12">2889.13 runs/s</text>
</svg>
